<svg width="152" height="24" viewBox="0 0 152 24" fill="none" xmlns="http://www.w3.org/2000/svg">
<path d="M0 15.1364H1.05682V11.9489H2.96591C4.99858 11.9489 5.91477 10.7131 5.91477 9.17052C5.91477 7.62792 4.99858 6.40912 2.94886 6.40912H0V15.1364ZM1.05682 11.0114V7.34662H2.91477C4.3338 7.34662 4.875 8.12222 4.875 9.17052C4.875 10.2188 4.3338 11.0114 2.93182 11.0114H1.05682ZM10.0696 15.2728C11.8423 15.2728 13.0355 13.9262 13.0355 11.8978C13.0355 9.85232 11.8423 8.50572 10.0696 8.50572C8.29687 8.50572 7.10369 9.85232 7.10369 11.8978C7.10369 13.9262 8.29687 15.2728 10.0696 15.2728ZM10.0696 14.3694C8.72301 14.3694 8.10937 13.2103 8.10937 11.8978C8.10937 10.5853 8.72301 9.40912 10.0696 9.40912C11.4162 9.40912 12.0298 10.5853 12.0298 11.8978C12.0298 13.2103 11.4162 14.3694 10.0696 14.3694ZM15.831 15.1364H16.8196L18.2514 10.108H18.3537L19.7855 15.1364H20.7742L22.7685 8.59092H21.7117L20.2969 13.5853H20.2287L18.848 8.59092H17.7742L16.3764 13.6023H16.3083L14.8935 8.59092H13.8367L15.831 15.1364ZM26.6197 15.2728C27.9492 15.2728 28.9208 14.608 29.2276 13.6194L28.2561 13.3466C28.0004 14.0284 27.408 14.3694 26.6197 14.3694C25.4393 14.3694 24.6254 13.6066 24.5785 12.2046H29.3299V11.7784C29.3299 9.34092 27.8811 8.50572 26.5174 8.50572C24.7447 8.50572 23.5686 9.90342 23.5686 11.9148C23.5686 13.9262 24.7276 15.2728 26.6197 15.2728ZM24.5785 11.3353C24.6467 10.3168 25.3669 9.40912 26.5174 9.40912C27.6083 9.40912 28.3072 10.2273 28.3072 11.3353H24.5785ZM30.8597 15.1364H31.8654V10.9944C31.8654 10.108 32.5643 9.46032 33.5188 9.46032C33.7873 9.46032 34.0643 9.51142 34.1325 9.52842V8.50572C34.0174 8.49722 33.7532 8.48872 33.6041 8.48872C32.82 8.48872 32.1382 8.93192 31.8995 9.57962H31.8313V8.59092H30.8597V15.1364ZM37.8697 15.2728C39.1992 15.2728 40.1708 14.608 40.4776 13.6194L39.5061 13.3466C39.2504 14.0284 38.658 14.3694 37.8697 14.3694C36.6893 14.3694 35.8754 13.6066 35.8285 12.2046H40.5799V11.7784C40.5799 9.34092 39.1311 8.50572 37.7674 8.50572C35.9947 8.50572 34.8186 9.90342 34.8186 11.9148C34.8186 13.9262 35.9776 15.2728 37.8697 15.2728ZM35.8285 11.3353C35.8967 10.3168 36.6169 9.40912 37.7674 9.40912C38.8583 9.40912 39.5572 10.2273 39.5572 11.3353H35.8285ZM44.5813 15.2728C45.8427 15.2728 46.2688 14.4887 46.4904 14.1307H46.6097V15.1364H47.5813V6.40912H46.5757V9.63072H46.4904C46.2688 9.28982 45.8768 8.50572 44.5984 8.50572C42.945 8.50572 41.8029 9.81822 41.8029 11.8807C41.8029 13.9603 42.945 15.2728 44.5813 15.2728ZM44.7177 14.3694C43.4563 14.3694 42.8086 13.2614 42.8086 11.8637C42.8086 10.483 43.4393 9.40912 44.7177 9.40912C45.945 9.40912 46.5927 10.3978 46.5927 11.8637C46.5927 13.3466 45.9279 14.3694 44.7177 14.3694ZM53.0742 15.1364H54.0458V14.1307H54.1651C54.3867 14.4887 54.8129 15.2728 56.0742 15.2728C57.7106 15.2728 58.8526 13.9603 58.8526 11.8807C58.8526 9.81822 57.7106 8.50572 56.0572 8.50572C54.7788 8.50572 54.3867 9.28982 54.1651 9.63072H54.0799V6.40912H53.0742V15.1364ZM54.0629 11.8637C54.0629 10.3978 54.7106 9.40912 55.9379 9.40912C57.2163 9.40912 57.847 10.483 57.847 11.8637C57.847 13.2614 57.1992 14.3694 55.9379 14.3694C54.7276 14.3694 54.0629 13.3466 54.0629 11.8637ZM60.8044 17.5909C61.712 17.5909 62.3512 17.1094 62.7305 16.0909L65.5174 8.60802L64.418 8.59092L62.6112 13.8069H62.543L60.7362 8.59092H59.6453L62.0657 15.1705L61.8782 15.6819C61.5117 16.679 61.06 16.7728 60.3271 16.5853L60.0714 17.4716C60.1737 17.5228 60.4634 17.5909 60.8044 17.5909Z" fill="black" fill-opacity="0.45"/>
<path d="M75.8355 18.875C76.8494 20.2853 78.15 21.4654 79.652 22.3378C81.154 23.2103 82.8235 23.7554 84.5509 23.9374C83.6622 22.6 82.3703 21.3696 80.7575 20.4328C79.1448 19.4961 77.4368 18.9844 75.8355 18.875Z" fill="url(#paint0_linear_13278_146917)"/>
<path d="M82.9247 16.7029C79.8175 14.8977 76.4545 14.4377 74.0481 15.2504C74.2804 16.0181 74.5868 16.7615 74.9629 17.47C77.0536 17.4216 79.3363 17.9894 81.4604 19.2231C83.5844 20.4568 85.209 22.1594 86.2031 24C87.0053 23.9754 87.8033 23.8732 88.5858 23.6949C88.0994 21.2024 86.031 18.5085 82.9247 16.7029Z" fill="url(#paint1_linear_13278_146917)"/>
<path d="M97.7313 9.37567C97.3363 7.7688 96.6215 6.25802 95.6296 4.93353C94.6377 3.60904 93.3891 2.498 91.9583 1.66676C90.5276 0.835525 88.944 0.301128 87.3021 0.0954825C85.6602 -0.110163 83.9937 0.01716 82.4021 0.469849C85.061 0.79525 88.0124 1.79342 90.9069 3.47493C93.8013 5.15644 96.1324 7.22558 97.7313 9.37567Z" fill="url(#paint2_linear_13278_146917)"/>
<path d="M93.8627 15.2687C92.5017 13.0084 90.1702 10.8441 87.2982 9.17561C84.4261 7.50712 81.3917 6.5541 78.7564 6.49105C76.4379 6.43614 74.6978 7.11013 73.9836 8.33974C73.9795 8.34706 73.9738 8.35398 73.9693 8.3613C73.9051 8.59193 73.8497 8.82296 73.7993 9.05481C74.7967 8.66107 75.9522 8.44184 77.2372 8.41743C80.0946 8.36374 83.2925 9.27771 86.2434 10.9922C89.1944 12.7066 91.5743 15.0328 92.9426 17.5409C93.556 18.6708 93.9388 19.7833 94.0905 20.8461C94.267 20.6883 94.4403 20.5252 94.6083 20.3556C94.6128 20.3479 94.6156 20.3397 94.6201 20.3316C95.3343 19.1008 95.0582 17.2557 93.8627 15.2687Z" fill="url(#paint3_linear_13278_146917)"/>
<path d="M85.1131 12.9364C80.7149 10.3812 75.8546 9.98094 73.5174 11.7641C73.522 12.3223 73.5647 12.8795 73.6451 13.4318C74.3326 13.2234 75.0412 13.0922 75.7578 13.0405C78.3695 12.8441 81.2489 13.5717 83.8619 15.0905C86.4749 16.6094 88.5347 18.7513 89.6581 21.1158C89.9686 21.7635 90.2055 22.4441 90.3642 23.1446C90.884 22.9409 91.3894 22.7021 91.8769 22.43C92.2682 19.516 89.5125 15.492 85.1131 12.9364Z" fill="url(#paint4_linear_13278_146917)"/>
<path d="M96.125 11.4856C94.7485 9.22769 92.3967 7.05727 89.5043 5.37779C86.6119 3.69831 83.5657 2.73025 80.9218 2.65256C78.9064 2.59439 77.3453 3.0829 76.5358 4.00582C79.8968 3.43637 84.33 4.39345 88.6269 6.88969C92.9238 9.38592 95.9525 12.7636 97.1215 15.9651C97.5222 14.8055 97.1736 13.2073 96.125 11.4856Z" fill="url(#paint5_linear_13278_146917)"/>
<path d="M108.516 6.68182L110.568 6.68182L110.568 13.5277C110.568 14.1605 110.425 14.7102 110.141 15.1768C109.86 15.6435 109.468 16.003 108.966 16.2555C108.465 16.508 107.881 16.6342 107.217 16.6342C106.625 16.6342 106.088 16.5304 105.606 16.3226C105.126 16.1117 104.746 15.7921 104.465 15.3638C104.184 14.9324 104.045 14.3906 104.048 13.7386L106.114 13.7386C106.12 13.9975 106.173 14.2196 106.272 14.405C106.374 14.5872 106.513 14.7278 106.689 14.8269C106.868 14.9228 107.079 14.9707 107.322 14.9707C107.578 14.9707 107.793 14.9164 107.969 14.8077C108.148 14.6958 108.284 14.5328 108.377 14.3187C108.469 14.1046 108.516 13.8409 108.516 13.5277L108.516 6.68182ZM116.968 13.3647L116.968 9.13636L119.01 9.13636L119.01 16.5L117.049 16.5L117.049 15.1625L116.972 15.1625C116.806 15.5939 116.53 15.9407 116.143 16.2028C115.76 16.4648 115.291 16.5959 114.738 16.5959C114.246 16.5959 113.813 16.484 113.439 16.2603C113.065 16.0366 112.773 15.7186 112.562 15.3063C112.354 14.894 112.249 14.4002 112.246 13.8249L112.246 9.13636L114.288 9.13636L114.288 13.4606C114.291 13.8952 114.408 14.2388 114.638 14.4913C114.868 14.7438 115.176 14.87 115.563 14.87C115.809 14.87 116.039 14.8141 116.253 14.7022C116.467 14.5872 116.64 14.4178 116.771 14.1941C116.905 13.9703 116.971 13.6939 116.968 13.3647ZM120.643 19.2614L120.643 9.13636L122.657 9.13636L122.657 10.3732L122.748 10.3732C122.838 10.1751 122.967 9.97372 123.136 9.76918C123.309 9.56144 123.533 9.38885 123.808 9.25142C124.086 9.1108 124.431 9.04048 124.843 9.04048C125.38 9.04048 125.875 9.18111 126.329 9.46236C126.783 9.74041 127.146 10.1607 127.417 10.7232C127.689 11.2825 127.825 11.984 127.825 12.8278C127.825 13.6491 127.692 14.3427 127.427 14.9084C127.165 15.4709 126.807 15.8976 126.353 16.1884C125.903 16.476 125.398 16.6199 124.838 16.6199C124.442 16.6199 124.105 16.5543 123.827 16.4233C123.552 16.2923 123.327 16.1277 123.151 15.9295C122.975 15.7282 122.841 15.5252 122.748 15.3207L122.686 15.3207L122.686 19.2614L120.643 19.2614ZM122.643 12.8182C122.643 13.256 122.703 13.638 122.825 13.964C122.946 14.29 123.122 14.544 123.352 14.7262C123.582 14.9052 123.862 14.9947 124.191 14.9947C124.523 14.9947 124.805 14.9036 125.035 14.7214C125.265 14.536 125.439 14.2804 125.557 13.9544C125.679 13.6252 125.74 13.2464 125.74 12.8182C125.74 12.3931 125.68 12.0192 125.562 11.6964C125.444 11.3736 125.27 11.1211 125.04 10.9389C124.809 10.7567 124.527 10.6657 124.191 10.6657C123.859 10.6657 123.577 10.7536 123.347 10.9293C123.12 11.1051 122.946 11.3544 122.825 11.6772C122.703 12 122.643 12.3803 122.643 12.8182ZM129.186 16.5L129.186 9.13636L131.229 9.13636L131.229 16.5L129.186 16.5ZM130.212 8.18715C129.909 8.18715 129.648 8.08647 129.431 7.88512C129.217 7.68058 129.11 7.43608 129.11 7.15163C129.11 6.87038 129.217 6.62909 129.431 6.42774C129.648 6.22319 129.909 6.12092 130.212 6.12092C130.516 6.12092 130.775 6.22319 130.989 6.42774C131.206 6.62909 131.315 6.87038 131.315 7.15163C131.315 7.43608 131.206 7.68058 130.989 7.88512C130.775 8.08647 130.516 8.18715 130.212 8.18715ZM136.781 9.13637L136.781 10.6705L132.347 10.6705L132.347 9.13636L136.781 9.13637ZM133.354 7.37216L135.396 7.37216L135.396 14.2372C135.396 14.4258 135.425 14.5728 135.482 14.6783C135.54 14.7805 135.62 14.8525 135.722 14.894C135.827 14.9355 135.949 14.9563 136.086 14.9563C136.182 14.9563 136.278 14.9483 136.374 14.9324C136.47 14.9132 136.543 14.8988 136.594 14.8892L136.916 16.4089C136.813 16.4409 136.67 16.4776 136.484 16.5192C136.299 16.5639 136.073 16.5911 135.808 16.6007C135.316 16.6199 134.885 16.5543 134.514 16.4041C134.146 16.2539 133.86 16.0206 133.656 15.7042C133.451 15.3878 133.35 14.9883 133.354 14.5057L133.354 7.37216ZM141.388 16.6438C140.631 16.6438 139.979 16.4904 139.432 16.1836C138.889 15.8736 138.47 15.4357 138.176 14.87C137.882 14.3011 137.735 13.6284 137.735 12.8517C137.735 12.0943 137.882 11.4295 138.176 10.8574C138.47 10.2853 138.884 9.83949 139.418 9.51989C139.955 9.20029 140.585 9.04048 141.307 9.04048C141.793 9.04048 142.245 9.11879 142.664 9.27539C143.086 9.4288 143.453 9.66051 143.766 9.97053C144.083 10.2805 144.329 10.6705 144.505 11.1403C144.68 11.6069 144.768 12.1534 144.768 12.7798L144.768 13.3407L138.55 13.3407L138.55 12.0751L142.846 12.0751C142.846 11.7811 142.782 11.5206 142.654 11.2937C142.526 11.0668 142.349 10.8894 142.122 10.7615C141.898 10.6305 141.638 10.565 141.341 10.565C141.031 10.565 140.756 10.6369 140.516 10.7807C140.279 10.9213 140.094 11.1115 139.96 11.3512C139.826 11.5877 139.757 11.8514 139.754 12.1422L139.754 13.3455C139.754 13.7099 139.821 14.0247 139.955 14.29C140.092 14.5552 140.286 14.7598 140.535 14.9036C140.784 15.0474 141.08 15.1193 141.422 15.1193C141.649 15.1193 141.857 15.0874 142.045 15.0234C142.234 14.9595 142.395 14.8636 142.529 14.7358C142.664 14.608 142.766 14.4514 142.836 14.266L144.725 14.3906C144.629 14.8445 144.433 15.2408 144.135 15.5795C143.841 15.9151 143.461 16.1772 142.994 16.3658C142.531 16.5511 141.996 16.6438 141.388 16.6438ZM146.101 16.5L146.101 9.13637L148.081 9.13637L148.081 10.4212L148.158 10.4212C148.292 9.96414 148.517 9.61896 148.834 9.38566C149.15 9.14915 149.514 9.0309 149.927 9.0309C150.029 9.0309 150.139 9.03729 150.257 9.05007C150.376 9.06286 150.48 9.08044 150.569 9.10281L150.569 10.915C150.473 10.8862 150.341 10.8606 150.171 10.8382C150.002 10.8159 149.847 10.8047 149.706 10.8047C149.406 10.8047 149.137 10.8702 148.901 11.0012C148.667 11.1291 148.482 11.3081 148.345 11.5382C148.21 11.7683 148.143 12.0336 148.143 12.334L148.143 16.5L146.101 16.5Z" fill="#111726"/>
<defs>
<linearGradient id="paint0_linear_13278_146917" x1="89.6424" y1="4.875" x2="78.5174" y2="24" gradientUnits="userSpaceOnUse">
<stop offset="0.0001" stop-color="#A4D756"/>
<stop offset="1" stop-color="#00B6E7"/>
</linearGradient>
<linearGradient id="paint1_linear_13278_146917" x1="89.6424" y1="4.875" x2="78.5174" y2="24" gradientUnits="userSpaceOnUse">
<stop offset="0.0001" stop-color="#A4D756"/>
<stop offset="1" stop-color="#00B6E7"/>
</linearGradient>
<linearGradient id="paint2_linear_13278_146917" x1="89.6424" y1="4.875" x2="78.5174" y2="24" gradientUnits="userSpaceOnUse">
<stop offset="0.0001" stop-color="#A4D756"/>
<stop offset="1" stop-color="#00B6E7"/>
</linearGradient>
<linearGradient id="paint3_linear_13278_146917" x1="89.6424" y1="4.875" x2="78.5174" y2="24" gradientUnits="userSpaceOnUse">
<stop offset="0.0001" stop-color="#A4D756"/>
<stop offset="1" stop-color="#00B6E7"/>
</linearGradient>
<linearGradient id="paint4_linear_13278_146917" x1="89.6424" y1="4.875" x2="78.5174" y2="24" gradientUnits="userSpaceOnUse">
<stop offset="0.0001" stop-color="#A4D756"/>
<stop offset="1" stop-color="#00B6E7"/>
</linearGradient>
<linearGradient id="paint5_linear_13278_146917" x1="89.6424" y1="4.875" x2="78.5174" y2="24" gradientUnits="userSpaceOnUse">
<stop offset="0.0001" stop-color="#A4D756"/>
<stop offset="1" stop-color="#00B6E7"/>
</linearGradient>
</defs>
</svg>
