<svg width="151" height="24" viewBox="0 0 151 24" fill="none" xmlns="http://www.w3.org/2000/svg">
<path d="M0 15.1364H1.05682V11.9489H2.96591C4.99858 11.9489 5.91477 10.7131 5.91477 9.17052C5.91477 7.62792 4.99858 6.40912 2.94886 6.40912H0V15.1364ZM1.05682 11.0114V7.34662H2.91477C4.3338 7.34662 4.875 8.12222 4.875 9.17052C4.875 10.2188 4.3338 11.0114 2.93182 11.0114H1.05682ZM10.0696 15.2728C11.8423 15.2728 13.0355 13.9262 13.0355 11.8978C13.0355 9.85232 11.8423 8.50572 10.0696 8.50572C8.29687 8.50572 7.10369 9.85232 7.10369 11.8978C7.10369 13.9262 8.29687 15.2728 10.0696 15.2728ZM10.0696 14.3694C8.72301 14.3694 8.10937 13.2103 8.10937 11.8978C8.10937 10.5853 8.72301 9.40912 10.0696 9.40912C11.4162 9.40912 12.0298 10.5853 12.0298 11.8978C12.0298 13.2103 11.4162 14.3694 10.0696 14.3694ZM15.831 15.1364H16.8196L18.2514 10.108H18.3537L19.7855 15.1364H20.7742L22.7685 8.59092H21.7117L20.2969 13.5853H20.2287L18.848 8.59092H17.7742L16.3764 13.6023H16.3083L14.8935 8.59092H13.8367L15.831 15.1364ZM26.6197 15.2728C27.9492 15.2728 28.9208 14.608 29.2276 13.6194L28.2561 13.3466C28.0004 14.0284 27.408 14.3694 26.6197 14.3694C25.4393 14.3694 24.6254 13.6066 24.5785 12.2046H29.3299V11.7784C29.3299 9.34092 27.8811 8.50572 26.5174 8.50572C24.7447 8.50572 23.5686 9.90342 23.5686 11.9148C23.5686 13.9262 24.7276 15.2728 26.6197 15.2728ZM24.5785 11.3353C24.6467 10.3168 25.3669 9.40912 26.5174 9.40912C27.6083 9.40912 28.3072 10.2273 28.3072 11.3353H24.5785ZM30.8597 15.1364H31.8654V10.9944C31.8654 10.108 32.5643 9.46032 33.5188 9.46032C33.7873 9.46032 34.0643 9.51142 34.1325 9.52842V8.50572C34.0174 8.49722 33.7532 8.48872 33.6041 8.48872C32.82 8.48872 32.1382 8.93192 31.8995 9.57962H31.8313V8.59092H30.8597V15.1364ZM37.8697 15.2728C39.1992 15.2728 40.1708 14.608 40.4776 13.6194L39.5061 13.3466C39.2504 14.0284 38.658 14.3694 37.8697 14.3694C36.6893 14.3694 35.8754 13.6066 35.8285 12.2046H40.5799V11.7784C40.5799 9.34092 39.1311 8.50572 37.7674 8.50572C35.9947 8.50572 34.8186 9.90342 34.8186 11.9148C34.8186 13.9262 35.9776 15.2728 37.8697 15.2728ZM35.8285 11.3353C35.8967 10.3168 36.6169 9.40912 37.7674 9.40912C38.8583 9.40912 39.5572 10.2273 39.5572 11.3353H35.8285ZM44.5813 15.2728C45.8427 15.2728 46.2688 14.4887 46.4904 14.1307H46.6097V15.1364H47.5813V6.40912H46.5757V9.63072H46.4904C46.2688 9.28982 45.8768 8.50572 44.5984 8.50572C42.945 8.50572 41.8029 9.81822 41.8029 11.8807C41.8029 13.9603 42.945 15.2728 44.5813 15.2728ZM44.7177 14.3694C43.4563 14.3694 42.8086 13.2614 42.8086 11.8637C42.8086 10.483 43.4393 9.40912 44.7177 9.40912C45.945 9.40912 46.5927 10.3978 46.5927 11.8637C46.5927 13.3466 45.9279 14.3694 44.7177 14.3694ZM53.0742 15.1364H54.0458V14.1307H54.1651C54.3867 14.4887 54.8129 15.2728 56.0742 15.2728C57.7106 15.2728 58.8526 13.9603 58.8526 11.8807C58.8526 9.81822 57.7106 8.50572 56.0572 8.50572C54.7788 8.50572 54.3867 9.28982 54.1651 9.63072H54.0799V6.40912H53.0742V15.1364ZM54.0629 11.8637C54.0629 10.3978 54.7106 9.40912 55.9379 9.40912C57.2163 9.40912 57.847 10.483 57.847 11.8637C57.847 13.2614 57.1992 14.3694 55.9379 14.3694C54.7276 14.3694 54.0629 13.3466 54.0629 11.8637ZM60.8044 17.5909C61.712 17.5909 62.3512 17.1094 62.7305 16.0909L65.5174 8.60802L64.418 8.59092L62.6112 13.8069H62.543L60.7362 8.59092H59.6453L62.0657 15.1705L61.8782 15.6819C61.5117 16.679 61.06 16.7728 60.3271 16.5853L60.0714 17.4716C60.1737 17.5228 60.4634 17.5909 60.8044 17.5909Z" fill="white" fill-opacity="0.35"/>
<path d="M75.8354 18.875C76.8494 20.2853 78.15 21.4654 79.652 22.3378C81.154 23.2103 82.8235 23.7554 84.5509 23.9374C83.6621 22.6 82.3703 21.3696 80.7575 20.4328C79.1448 19.4961 77.4368 18.9844 75.8354 18.875Z" fill="url(#paint0_linear_13278_146910)"/>
<path d="M82.9247 16.7029C79.8175 14.8977 76.4545 14.4377 74.0481 15.2504C74.2804 16.0181 74.5868 16.7615 74.9629 17.47C77.0536 17.4216 79.3363 17.9894 81.4604 19.2231C83.5844 20.4568 85.209 22.1594 86.2031 24C87.0053 23.9754 87.8033 23.8732 88.5858 23.6949C88.0994 21.2024 86.031 18.5085 82.9247 16.7029Z" fill="url(#paint1_linear_13278_146910)"/>
<path d="M97.7313 9.37567C97.3363 7.7688 96.6215 6.25802 95.6296 4.93353C94.6377 3.60904 93.3891 2.498 91.9583 1.66676C90.5275 0.835525 88.9439 0.301128 87.302 0.0954825C85.6602 -0.110163 83.9937 0.01716 82.4021 0.469849C85.061 0.79525 88.0124 1.79342 90.9068 3.47493C93.8013 5.15644 96.1324 7.22558 97.7313 9.37567Z" fill="url(#paint2_linear_13278_146910)"/>
<path d="M93.8627 15.2687C92.5017 13.0084 90.1702 10.8441 87.2981 9.17561C84.4261 7.50712 81.3917 6.5541 78.7564 6.49105C76.4379 6.43614 74.6978 7.11013 73.9835 8.33974C73.9795 8.34706 73.9738 8.35398 73.9693 8.3613C73.905 8.59193 73.8497 8.82296 73.7993 9.05481C74.7966 8.66107 75.9522 8.44184 77.2371 8.41743C80.0946 8.36374 83.2925 9.27771 86.2434 10.9922C89.1944 12.7066 91.5743 15.0328 92.9426 17.5409C93.556 18.6708 93.9388 19.7833 94.0905 20.8461C94.267 20.6883 94.4403 20.5252 94.6083 20.3556C94.6128 20.3479 94.6156 20.3397 94.6201 20.3316C95.3343 19.1008 95.0581 17.2557 93.8627 15.2687Z" fill="url(#paint3_linear_13278_146910)"/>
<path d="M85.113 12.9364C80.7148 10.3812 75.8546 9.98094 73.5174 11.7641C73.522 12.3223 73.5646 12.8795 73.6451 13.4318C74.3326 13.2234 75.0412 13.0922 75.7578 13.0405C78.3695 12.8441 81.2489 13.5717 83.8619 15.0905C86.4749 16.6094 88.5346 18.7513 89.6581 21.1158C89.9686 21.7635 90.2055 22.4441 90.3642 23.1446C90.884 22.9409 91.3894 22.7021 91.8769 22.43C92.2682 19.516 89.5125 15.492 85.113 12.9364Z" fill="url(#paint4_linear_13278_146910)"/>
<path d="M96.125 11.4856C94.7485 9.22769 92.3967 7.05727 89.5043 5.37779C86.6119 3.69831 83.5657 2.73025 80.9218 2.65256C78.9064 2.59439 77.3452 3.0829 76.5358 4.00582C79.8968 3.43637 84.33 4.39345 88.6269 6.88969C92.9238 9.38592 95.9525 12.7636 97.1215 15.9651C97.5221 14.8055 97.1736 13.2073 96.125 11.4856Z" fill="url(#paint5_linear_13278_146910)"/>
<path d="M108.516 7.43182L110.568 7.43182L110.568 14.2777C110.568 14.9105 110.425 15.4602 110.141 15.9268C109.86 16.3935 109.468 16.753 108.966 17.0055C108.465 17.258 107.881 17.3842 107.217 17.3842C106.625 17.3842 106.088 17.2804 105.606 17.0726C105.126 16.8617 104.746 16.5421 104.465 16.1138C104.184 15.6824 104.045 15.1406 104.048 14.4886L106.114 14.4886C106.12 14.7475 106.173 14.9696 106.272 15.155C106.374 15.3372 106.513 15.4778 106.689 15.5769C106.868 15.6728 107.079 15.7207 107.322 15.7207C107.578 15.7207 107.793 15.6664 107.969 15.5577C108.148 15.4458 108.284 15.2828 108.377 15.0687C108.469 14.8546 108.516 14.5909 108.516 14.2777L108.516 7.43182ZM116.968 14.1147L116.968 9.88636L119.01 9.88636L119.01 17.25L117.049 17.25L117.049 15.9125L116.972 15.9125C116.806 16.3439 116.53 16.6907 116.143 16.9528C115.76 17.2148 115.291 17.3459 114.738 17.3459C114.246 17.3459 113.813 17.234 113.439 17.0103C113.065 16.7866 112.773 16.4686 112.562 16.0563C112.354 15.644 112.249 15.1502 112.246 14.5749L112.246 9.88636L114.288 9.88636L114.288 14.2106C114.291 14.6452 114.408 14.9888 114.638 15.2413C114.868 15.4938 115.176 15.62 115.563 15.62C115.809 15.62 116.039 15.5641 116.253 15.4522C116.467 15.3372 116.64 15.1678 116.771 14.9441C116.905 14.7203 116.971 14.4439 116.968 14.1147ZM120.643 20.0114L120.643 9.88636L122.657 9.88636L122.657 11.1232L122.748 11.1232C122.838 10.9251 122.967 10.7237 123.136 10.5192C123.309 10.3114 123.533 10.1389 123.808 10.0014C124.086 9.8608 124.431 9.79048 124.843 9.79048C125.38 9.79048 125.875 9.93111 126.329 10.2124C126.783 10.4904 127.146 10.9107 127.417 11.4732C127.689 12.0325 127.825 12.734 127.825 13.5778C127.825 14.3991 127.692 15.0927 127.427 15.6584C127.165 16.2209 126.807 16.6476 126.353 16.9384C125.903 17.226 125.398 17.3699 124.838 17.3699C124.442 17.3699 124.105 17.3043 123.827 17.1733C123.552 17.0423 123.327 16.8777 123.151 16.6795C122.975 16.4782 122.841 16.2752 122.748 16.0707L122.686 16.0707L122.686 20.0114L120.643 20.0114ZM122.643 13.5682C122.643 14.006 122.703 14.388 122.825 14.714C122.946 15.04 123.122 15.294 123.352 15.4762C123.582 15.6552 123.862 15.7447 124.191 15.7447C124.523 15.7447 124.805 15.6536 125.035 15.4714C125.265 15.286 125.439 15.0304 125.557 14.7044C125.679 14.3752 125.74 13.9964 125.74 13.5682C125.74 13.1431 125.68 12.7692 125.562 12.4464C125.444 12.1236 125.27 11.8711 125.04 11.6889C124.809 11.5067 124.527 11.4157 124.191 11.4157C123.859 11.4157 123.577 11.5036 123.347 11.6793C123.12 11.8551 122.946 12.1044 122.825 12.4272C122.703 12.75 122.643 13.1303 122.643 13.5682ZM129.186 17.25L129.186 9.88636L131.229 9.88636L131.229 17.25L129.186 17.25ZM130.212 8.93715C129.909 8.93715 129.648 8.83647 129.431 8.63512C129.217 8.43058 129.11 8.18608 129.11 7.90163C129.11 7.62038 129.217 7.37908 129.431 7.17774C129.648 6.97319 129.909 6.87092 130.212 6.87092C130.516 6.87092 130.775 6.97319 130.989 7.17774C131.206 7.37908 131.315 7.62038 131.315 7.90163C131.315 8.18608 131.206 8.43058 130.989 8.63512C130.775 8.83647 130.516 8.93715 130.212 8.93715ZM136.781 9.88636L136.781 11.4205L132.347 11.4205L132.347 9.88636L136.781 9.88636ZM133.354 8.12216L135.396 8.12216L135.396 14.9872C135.396 15.1758 135.425 15.3228 135.482 15.4283C135.54 15.5305 135.62 15.6025 135.722 15.644C135.827 15.6855 135.949 15.7063 136.086 15.7063C136.182 15.7063 136.278 15.6983 136.374 15.6824C136.47 15.6632 136.543 15.6488 136.594 15.6392L136.916 17.1589C136.813 17.1909 136.67 17.2276 136.484 17.2692C136.299 17.3139 136.073 17.3411 135.808 17.3507C135.316 17.3699 134.885 17.3043 134.514 17.1541C134.146 17.0039 133.86 16.7706 133.656 16.4542C133.451 16.1378 133.35 15.7383 133.354 15.2557L133.354 8.12216ZM141.388 17.3938C140.631 17.3938 139.979 17.2404 139.432 16.9336C138.889 16.6236 138.47 16.1857 138.176 15.62C137.882 15.0511 137.735 14.3784 137.735 13.6017C137.735 12.8443 137.882 12.1795 138.176 11.6074C138.47 11.0353 138.884 10.5895 139.418 10.2699C139.955 9.95029 140.585 9.79048 141.307 9.79048C141.793 9.79048 142.245 9.86879 142.664 10.0254C143.086 10.1788 143.453 10.4105 143.766 10.7205C144.083 11.0305 144.329 11.4205 144.505 11.8903C144.68 12.3569 144.768 12.9034 144.768 13.5298L144.768 14.0907L138.55 14.0907L138.55 12.8251L142.846 12.8251C142.846 12.5311 142.782 12.2706 142.654 12.0437C142.526 11.8168 142.349 11.6394 142.122 11.5115C141.898 11.3805 141.638 11.315 141.341 11.315C141.03 11.315 140.756 11.3869 140.516 11.5307C140.279 11.6713 140.094 11.8615 139.96 12.1012C139.826 12.3377 139.757 12.6014 139.754 12.8922L139.754 14.0955C139.754 14.4599 139.821 14.7747 139.955 15.04C140.092 15.3052 140.286 15.5098 140.535 15.6536C140.784 15.7974 141.08 15.8693 141.422 15.8693C141.649 15.8693 141.857 15.8374 142.045 15.7734C142.234 15.7095 142.395 15.6136 142.529 15.4858C142.664 15.358 142.766 15.2014 142.836 15.016L144.725 15.1406C144.629 15.5945 144.433 15.9908 144.135 16.3295C143.841 16.6651 143.461 16.9272 142.994 17.1158C142.531 17.3011 141.996 17.3938 141.388 17.3938ZM146.101 17.25L146.101 9.88636L148.081 9.88636L148.081 11.1712L148.158 11.1712C148.292 10.7141 148.517 10.369 148.834 10.1357C149.15 9.89915 149.514 9.7809 149.927 9.7809C150.029 9.7809 150.139 9.78729 150.257 9.80007C150.376 9.81286 150.48 9.83043 150.569 9.85281L150.569 11.665C150.473 11.6362 150.341 11.6106 150.171 11.5882C150.002 11.5659 149.847 11.5547 149.706 11.5547C149.406 11.5547 149.137 11.6202 148.901 11.7512C148.667 11.8791 148.482 12.0581 148.345 12.2882C148.21 12.5183 148.143 12.7836 148.143 13.084L148.143 17.25L146.101 17.25Z" fill="white"/>
<defs>
<linearGradient id="paint0_linear_13278_146910" x1="89.6424" y1="4.875" x2="78.5174" y2="24" gradientUnits="userSpaceOnUse">
<stop offset="0.0001" stop-color="#C7F284"/>
<stop offset="1" stop-color="#00BEF0"/>
</linearGradient>
<linearGradient id="paint1_linear_13278_146910" x1="89.6424" y1="4.875" x2="78.5174" y2="24" gradientUnits="userSpaceOnUse">
<stop offset="0.0001" stop-color="#C7F284"/>
<stop offset="1" stop-color="#00BEF0"/>
</linearGradient>
<linearGradient id="paint2_linear_13278_146910" x1="89.6424" y1="4.875" x2="78.5174" y2="24" gradientUnits="userSpaceOnUse">
<stop offset="0.0001" stop-color="#C7F284"/>
<stop offset="1" stop-color="#00BEF0"/>
</linearGradient>
<linearGradient id="paint3_linear_13278_146910" x1="89.6424" y1="4.875" x2="78.5174" y2="24" gradientUnits="userSpaceOnUse">
<stop offset="0.0001" stop-color="#C7F284"/>
<stop offset="1" stop-color="#00BEF0"/>
</linearGradient>
<linearGradient id="paint4_linear_13278_146910" x1="89.6424" y1="4.875" x2="78.5174" y2="24" gradientUnits="userSpaceOnUse">
<stop offset="0.0001" stop-color="#C7F284"/>
<stop offset="1" stop-color="#00BEF0"/>
</linearGradient>
<linearGradient id="paint5_linear_13278_146910" x1="89.6424" y1="4.875" x2="78.5174" y2="24" gradientUnits="userSpaceOnUse">
<stop offset="0.0001" stop-color="#C7F284"/>
<stop offset="1" stop-color="#00BEF0"/>
</linearGradient>
</defs>
</svg>
